<?xml version="1.0" encoding="UTF-8"?>
<svg enable-background="new 0 0 100 100" className="slash" version="1.1" viewBox="0 0 100 100" xml:space="preserve" xmlns="http://www.w3.org/2000/svg">

	<path d="m37.3 41.9c1.4 3.7 4.9 6.1 8.9 6.1h6.4c4 0 7.5-2.4 8.9-6.1l5.2-13.3c1.1-2.7 0.8-5.7-0.6-8.2l-4.4-7.6c-1.7-3-4.9-4.8-8.3-4.8h-8c-3.4 0-6.6 1.8-8.3 4.8l-4.4 7.6c-1.5 2.5-1.7 5.5-0.6 8.2l5.2 13.3zm-1.1-19.5 4.4-7.6c1-1.7 2.8-2.8 4.8-2.8h8c2 0 3.8 1.1 4.8 2.8l4.4 7.6c0.8 1.5 1 3.2 0.4 4.8l-5.2 13.3c-0.8 2.1-2.9 3.5-5.2 3.5h-6.4c-2.3 0-4.3-1.4-5.2-3.5l-5.2-13.3c-0.5-1.6-0.4-3.4 0.4-4.8z"/>
	<path d="m18.4 91h62c3.6 0 6.5-2.9 6.5-6.5v-12.9c0-2.1-1-4.1-2.8-5.3l-19-13.2c-1.1-0.7-2.3-1.1-3.7-1.1h-24c-1.3 0-2.6 0.4-3.7 1.2l-19 13.2c-1.7 1.2-2.8 3.2-2.8 5.3v12.9c0 3.5 2.9 6.4 6.5 6.4zm-2.5-19.4c0-0.8 0.4-1.6 1.1-2l19-13.2c0.4-0.3 0.9-0.4 1.4-0.4h24c0.5 0 1 0.2 1.4 0.4l19 13.2c0.7 0.5 1.1 1.2 1.1 2v12.9c0 1.4-1.1 2.5-2.5 2.5h-62c-1.4 0-2.5-1.1-2.5-2.5v-12.9z"/>

</svg>
